<svg width="20" height="20" viewBox="0 0 20 20" fill="none" xmlns="http://www.w3.org/2000/svg">
<path fill-rule="evenodd" clip-rule="evenodd" d="M18.3332 5.825V9.16667C18.3331 9.33146 18.2843 9.49254 18.1927 9.62955C18.1011 9.76656 17.971 9.87334 17.8187 9.9364C17.6665 9.99946 17.499 10.016 17.3373 9.98382C17.1757 9.95168 17.0272 9.87234 16.9107 9.75583L15.8332 8.67833L11.4224 13.0892C11.2661 13.2454 11.0542 13.3332 10.8332 13.3332C10.6122 13.3332 10.4003 13.2454 10.244 13.0892L7.49985 10.345L3.08902 14.7558C2.93185 14.9076 2.72135 14.9916 2.50285 14.9897C2.28435 14.9878 2.07534 14.9002 1.92084 14.7457C1.76633 14.5912 1.67869 14.3822 1.67679 14.1637C1.67489 13.9452 1.75889 13.7347 1.91068 13.5775L6.91068 8.5775C7.06696 8.42127 7.27888 8.33351 7.49985 8.33351C7.72082 8.33351 7.93274 8.42127 8.08902 8.5775L10.8332 11.3217L14.6549 7.5L13.5774 6.4225C13.4608 6.30596 13.3815 6.15749 13.3494 5.99586C13.3172 5.83423 13.3337 5.6667 13.3968 5.51445C13.4598 5.3622 13.5666 5.23207 13.7036 5.1405C13.8406 5.04893 14.0017 5.00004 14.1665 5H17.4999L17.5399 5.00083C17.7527 5.01024 17.9538 5.10115 18.1015 5.25472C18.2491 5.40829 18.3321 5.61278 18.3332 5.82583" fill="#E27874"/>
</svg>
