<svg width="24" height="24" viewBox="0 0 24 24" fill="none" xmlns="http://www.w3.org/2000/svg">
<path d="M10.4286 2.71429C10 2.71429 9.71429 3.14286 9.71429 3.42857V7H8.28571V3.42857C8.28571 3 8 2.71429 7.57143 2.71429C7.14286 2.71429 6.85714 3.14286 6.85714 3.42857V7H5.42857V3.42857C5.42857 3 5.14286 2.71429 4.71429 2.71429C4.28571 2.71429 4 3.14286 4 3.42857V8.14286C4 9.42857 5 10.4286 6.14286 10.5714V20.5714C6.14286 21.4286 6.71429 22 7.57143 22C8.42857 22 9 21.4286 9 20.5714V10.5714C10.1429 10.4286 11.1429 9.42857 11.1429 8.14286V3.42857C11.1429 3.14286 10.8571 2.71429 10.4286 2.71429ZM17.3333 2C15.3333 2 13.7619 4.14286 13.7619 6.71429C13.619 8.42857 14.4762 10 15.9048 11V20.5714C15.9048 21.4286 16.4762 22 17.3333 22C18.1905 22 18.7619 21.4286 18.7619 20.5714V11C20.1905 10 21.0476 8.42857 20.9048 6.71429C20.9048 4.14286 19.3333 2 17.3333 2Z" fill="#6F6F82"/>
</svg>
