<svg width="20" height="20" viewBox="0 0 20 20" fill="none" xmlns="http://www.w3.org/2000/svg">
<path fill-rule="evenodd" clip-rule="evenodd" d="M18.3332 14.175V10.8333C18.3331 10.6686 18.2843 10.5075 18.1927 10.3705C18.1011 10.2335 17.971 10.1267 17.8187 10.0636C17.6665 10.0006 17.499 9.98405 17.3373 10.0162C17.1757 10.0483 17.0272 10.1277 16.9107 10.2442L15.8332 11.3217L11.4224 6.91085C11.2661 6.75462 11.0542 6.66686 10.8332 6.66686C10.6122 6.66686 10.4003 6.75462 10.244 6.91085L7.49985 9.65501L3.08902 5.24418C2.93185 5.09238 2.72135 5.00839 2.50285 5.01029C2.28435 5.01218 2.07534 5.09983 1.92084 5.25433C1.76633 5.40884 1.67869 5.61785 1.67679 5.83635C1.67489 6.05484 1.75889 6.26535 1.91068 6.42251L6.91068 11.4225C7.06696 11.5787 7.27888 11.6665 7.49985 11.6665C7.72082 11.6665 7.93274 11.5787 8.08902 11.4225L10.8332 8.67835L14.6549 12.5L13.5774 13.5775C13.4608 13.6941 13.3815 13.8425 13.3494 14.0042C13.3172 14.1658 13.3337 14.3333 13.3968 14.4856C13.4598 14.6378 13.5666 14.7679 13.7036 14.8595C13.8406 14.9511 14.0017 15 14.1665 15H17.4999L17.5399 14.9992C17.7526 14.9896 17.9536 14.8986 18.1012 14.7451C18.2489 14.5915 18.3319 14.388 18.3332 14.175Z" fill="#2BB8A7"/>
</svg>
