<svg width="16" height="16" viewBox="0 0 16 16" fill="none" xmlns="http://www.w3.org/2000/svg">
<path fill-rule="evenodd" clip-rule="evenodd" d="M7.90654 1.44442C8.05476 1.2962 8.29507 1.2962 8.44329 1.44442L12.2387 5.2398C12.3869 5.38801 12.3869 5.62832 12.2387 5.77654C12.0905 5.92476 11.8501 5.92476 11.7019 5.77654L8.17492 2.24954L4.64791 5.77654C4.49969 5.92476 4.25938 5.92476 4.11116 5.77654C3.96295 5.62832 3.96295 5.38801 4.11116 5.23979L7.90654 1.44442Z" fill="#171736"/>
<path fill-rule="evenodd" clip-rule="evenodd" d="M8.44331 14.5553C8.29509 14.7036 8.05478 14.7036 7.90656 14.5553L4.11118 10.76C3.96296 10.6117 3.96296 10.3714 4.11118 10.2232C4.2594 10.075 4.49971 10.075 4.64793 10.2232L8.17494 13.7502L11.7019 10.2232C11.8502 10.075 12.0905 10.075 12.2387 10.2232C12.3869 10.3714 12.3869 10.6117 12.2387 10.76L8.44331 14.5553Z" fill="#171736"/>
</svg>
