<svg width="89" height="35" viewBox="0 0 89 35" fill="none" xmlns="http://www.w3.org/2000/svg">
<path d="M12.4647 10.4233C9.81161 10.4233 7.67137 11.36 6.22187 13.1392V11.0147H0V33.4688H6.37885V21.1873C6.37885 18.304 8.11616 16.4411 10.8059 16.4411C13.4223 16.4411 14.8666 18.1104 14.8666 21.1402V33.4688H21.2454V19.2355C21.2454 14.0445 17.6347 10.4233 12.4647 10.4233Z" fill="#171736"/>
<path d="M65.4104 26.3306L59.8688 11.0088H52.9248L61.7422 33.3217L61.7997 33.4682H68.9426L77.7286 11.0088H70.9939L65.4104 26.3306Z" fill="#171736"/>
<path d="M84.9813 8.03767C87.2367 8.03767 89.0001 6.28466 89.0001 4.03977C89.0001 1.77394 87.2367 0 84.9813 0C82.7416 0 80.9834 1.77394 80.9834 4.03977C80.9834 6.28466 82.7364 8.03767 84.9813 8.03767Z" fill="#171736"/>
<path d="M88.1996 11.0154H81.8208V33.4696H88.1996V11.0154Z" fill="#171736"/>
<path d="M38.7076 10.4233C31.8107 10.4233 26.604 15.4992 26.604 22.2287C26.604 28.9581 31.8055 34.034 38.7076 34.034C45.6307 34.034 50.8531 28.9581 50.8531 22.2287C50.8531 15.4992 45.6307 10.4233 38.7076 10.4233ZM42.8206 19.2145C43.3387 19.8477 43.4381 20.9257 43.1869 22.2705C43.7782 22.3333 43.8096 22.574 43.8358 23.1392C43.8567 23.584 43.3753 25.023 42.7264 25.0439C42.6741 25.2323 42.6166 25.4155 42.5485 25.5934C42.5433 25.6091 42.5276 25.651 42.5276 25.651C42.2398 26.3993 41.795 27.0063 41.2717 27.5557C40.5548 28.3092 39.6286 28.7174 38.7756 28.7174C37.9227 28.7174 36.8238 28.2098 36.1854 27.5505C35.6568 27.0063 35.2278 26.3993 34.9347 25.6562L34.9295 25.6405C34.9242 25.63 34.9242 25.6196 34.919 25.6039C34.851 25.4259 34.7359 25.0492 34.6835 24.866C34.1341 24.8556 33.6893 23.5212 33.7312 23.0764C33.7835 22.5322 33.8201 22.3281 34.4062 22.2339C34.2911 21.4594 34.2963 20.9362 34.4847 19.8477C34.0922 19.7902 33.7678 19.9471 33.6317 20.1094C33.5899 19.2302 34.9399 18.5133 34.9399 18.5133C34.9399 18.5133 34.1132 18.4401 33.6003 18.7854C33.6003 18.7854 33.6841 18.4034 34.401 17.8121C34.5998 17.6499 35.0446 17.3726 35.4632 17.3359C35.1493 16.8859 34.8248 16.9016 34.5004 16.8284C35.6307 15.9806 37.4256 17.0377 37.4256 17.0377C37.4256 17.0377 40.1466 14.4108 43.2759 17.3307C43.2759 17.3307 42.4072 17.1476 42.088 17.472C43.0927 17.6918 44.0504 18.9372 44.0085 19.6436C44.0085 19.6489 43.4067 18.9843 42.8206 19.2145Z" fill="#171736"/>
</svg>
