<svg width="13" height="17" viewBox="0 0 13 17" fill="none" xmlns="http://www.w3.org/2000/svg">
<path fill-rule="evenodd" clip-rule="evenodd" d="M3.08333 11.25C2.76117 11.25 2.5 11.5112 2.5 11.8333C2.5 12.1555 2.76117 12.4167 3.08333 12.4167H6.83333C7.1555 12.4167 7.41667 12.1555 7.41667 11.8333C7.41667 11.5112 7.1555 11.25 6.83333 11.25H3.08333ZM12 1.94792C12 1.82343 11.9755 1.70017 11.9278 1.58516C11.8802 1.47016 11.8104 1.36566 11.7224 1.27764C11.6343 1.18962 11.5298 1.11979 11.4148 1.07216C11.2998 1.02452 11.1766 1 11.0521 1H1.94792C1.87036 1 1.79379 1.0095 1.71975 1.02787C1.79384 1.00948 1.87047 0.999959 1.94808 0.999959H11.0522C11.1767 0.999959 11.3 1.02448 11.415 1.07212C11.53 1.11975 11.6345 1.18957 11.7225 1.2776C11.8105 1.36562 11.8804 1.47012 11.928 1.58512C11.9756 1.70013 12.0002 1.82339 12.0002 1.94788V14.2187C12.0002 14.3432 11.9756 14.4665 11.928 14.5815C11.8804 14.6965 11.8105 14.801 11.7225 14.889C11.6345 14.977 11.53 15.0468 11.415 15.0945C11.3709 15.1127 11.3257 15.1276 11.2796 15.139C11.3256 15.1276 11.3708 15.1127 11.4148 15.0945C11.5298 15.0469 11.6343 14.9771 11.7224 14.889C11.8104 14.801 11.8802 14.6965 11.9278 14.5815C11.9755 14.4665 12 14.3432 12 14.2188V1.94792ZM3.08333 7.75C2.76117 7.75 2.5 8.01117 2.5 8.33333C2.5 8.6555 2.76117 8.91667 3.08333 8.91667H9.75C10.0722 8.91667 10.3333 8.6555 10.3333 8.33333C10.3333 8.01117 10.0722 7.75 9.75 7.75H3.08333ZM3.08333 4.16667C2.76117 4.16667 2.5 4.42783 2.5 4.75C2.5 5.07217 2.76117 5.33333 3.08333 5.33333H10.1667C10.4888 5.33333 10.75 5.07217 10.75 4.75C10.75 4.42783 10.4888 4.16667 10.1667 4.16667H3.08333ZM1.39549 1.39549C1.542 1.24898 1.74072 1.16667 1.94792 1.16667H11.0521C11.1547 1.16667 11.2563 1.18687 11.3511 1.22614C11.4458 1.2654 11.532 1.32294 11.6045 1.39549C11.6771 1.46804 11.7346 1.55416 11.7739 1.64894C11.8131 1.74373 11.8333 1.84532 11.8333 1.94792V14.2188C11.8333 14.3213 11.8131 14.4229 11.7739 14.5177C11.7346 14.6125 11.6771 14.6986 11.6045 14.7712C11.532 14.8437 11.4458 14.9013 11.3511 14.9405C11.2563 14.9798 11.1547 15 11.0521 15H1.94792C1.74072 15 1.542 14.9177 1.39549 14.7712C1.24898 14.6247 1.16667 14.426 1.16667 14.2188V1.94792C1.16667 1.74072 1.24898 1.542 1.39549 1.39549ZM1.94792 0C1.4313 0 0.935837 0.205226 0.570532 0.570531C0.205226 0.935837 0 1.4313 0 1.94792V14.2188C0 14.7354 0.205227 15.2308 0.570532 15.5961C0.935837 15.9614 1.4313 16.1667 1.94792 16.1667H11.0521C11.3079 16.1667 11.5612 16.1163 11.7975 16.0184C12.0339 15.9205 12.2486 15.777 12.4295 15.5961C12.6103 15.4153 12.7538 15.2005 12.8517 14.9642C12.9496 14.7279 13 14.4746 13 14.2188V1.94792C13 1.69211 12.9496 1.43881 12.8517 1.20248C12.7538 0.966149 12.6103 0.751412 12.4295 0.570531C12.2486 0.389651 12.0339 0.246168 11.7975 0.148276C11.5612 0.0503844 11.3079 0 11.0521 0H1.94792ZM2.98178 11.4291C2.80075 11.4745 2.66667 11.6382 2.66667 11.8333C2.66667 12.0635 2.85321 12.25 3.08333 12.25H6.83333C6.86662 12.25 6.899 12.2461 6.93003 12.2387C6.89905 12.2461 6.86673 12.25 6.8335 12.25H3.0835C2.85338 12.25 2.66683 12.0634 2.66683 11.8333C2.66683 11.6383 2.80083 11.4745 2.98178 11.4291ZM9.8467 8.73872C9.81571 8.74607 9.78339 8.74996 9.75016 8.74996H3.0835C2.85338 8.74996 2.66683 8.56341 2.66683 8.33329C2.66683 8.13826 2.80083 7.97452 2.98178 7.92913C2.80075 7.97447 2.66667 8.13824 2.66667 8.33333C2.66667 8.56345 2.85321 8.75 3.08333 8.75H9.75C9.78329 8.75 9.81566 8.7461 9.8467 8.73872ZM10.2659 5.15477C10.2342 5.16252 10.201 5.16663 10.1668 5.16663H3.0835C2.85338 5.16663 2.66683 4.98008 2.66683 4.74996C2.66683 4.55493 2.80083 4.39119 2.98178 4.3458C2.80075 4.39113 2.66667 4.55491 2.66667 4.75C2.66667 4.98012 2.85321 5.16667 3.08333 5.16667H10.1667C10.2009 5.16667 10.2341 5.16254 10.2659 5.15477ZM1.51646 0.219705C1.20563 0.297314 0.918714 0.458051 0.688383 0.688383C0.354334 1.02243 0.166667 1.4755 0.166667 1.94792V14.2188C0.166667 14.6912 0.354334 15.1442 0.688383 15.4783C1.02243 15.8123 1.4755 16 1.94792 16H11.0521C11.1956 16 11.3382 15.9827 11.4769 15.9486C11.3382 15.9826 11.1957 16 11.0522 16H1.94808C1.47566 16 1.02259 15.8123 0.688546 15.4782C0.354496 15.1442 0.166829 14.6911 0.166829 14.2187V1.94788C0.166829 1.47546 0.354496 1.02239 0.688546 0.688342C0.918837 0.458051 1.20569 0.29733 1.51646 0.219705Z" fill="#171736"/>
</svg>
